# Blender v2.76 (sub 0) OBJ File: 'train_track_straight.blend'
# www.blender.org
mtllib train_track_straight.mtl
g Cube_Cube.001
v -1.000000 -0.050000 1.000000
v -1.000000 0.050000 1.000000
v -1.000000 -0.050000 -1.000000
v -1.000000 0.050000 -1.000000
v 1.000000 -0.050000 1.000000
v 1.000000 0.050000 1.000000
v 1.000000 -0.050000 -1.000000
v 1.000000 0.050000 -1.000000
v -1.000000 0.050000 -0.777778
v -0.777778 0.050000 -1.000000
v 0.777778 0.050000 -1.000000
v 0.777778 -0.050000 -1.000000
v -0.777778 -0.050000 -1.000000
v 0.777778 0.050000 1.000000
v -0.777778 0.050000 1.000000
v -0.777778 -0.050000 1.000000
v 0.777778 -0.047712 1.000000
v 0.777778 0.050000 0.777778
v -0.777778 0.050000 0.777778
v 0.777778 0.050000 0.555556
v -0.777778 0.050000 0.555556
v 0.777778 0.050000 0.111111
v -0.777778 0.050000 0.111111
v 0.777778 0.050000 -0.111111
v -0.777778 0.050000 -0.111111
v 0.777778 0.050000 -0.555556
v -0.777778 0.050000 -0.555556
v 0.777778 0.050000 -0.777778
v -0.777778 0.050000 -0.777778
v -0.777778 -0.050000 0.777778
v 0.777778 -0.047712 0.777778
v -0.777778 -0.050000 0.555556
v 0.777778 -0.050000 0.555556
v -0.777778 -0.050000 0.111111
v 0.777778 -0.050000 0.111111
v -0.777778 -0.050000 -0.111111
v 0.777778 -0.050000 -0.111111
v -0.777778 -0.050000 -0.555556
v 0.777778 -0.050000 -0.555556
v -0.777778 -0.050000 -0.777778
v 0.777778 -0.050000 -0.777778
v 0.777778 0.030000 -0.777778
v 0.777778 -0.030000 -0.777778
v -0.777778 0.030000 -0.777778
v -0.777778 -0.030000 -0.777778
v -0.777778 0.030000 -0.111111
v -0.777778 -0.030000 -0.111111
v -0.777778 0.030000 0.555556
v -0.777778 -0.030000 0.555556
v 0.777778 0.030000 0.555556
v 0.777778 -0.030000 0.555556
v 0.777778 0.030000 -0.111111
v 0.777778 -0.030000 -0.111111
v 0.777778 0.030458 0.777778
v 0.777778 -0.028170 0.777778
v 0.777778 0.030000 0.111111
v 0.777778 -0.030000 0.111111
v 0.777778 0.030000 -0.555556
v 0.777778 -0.030000 -0.555556
v -0.777778 0.030000 0.777778
v -0.777778 -0.030000 0.777778
v -0.777778 0.030000 -0.555556
v -0.777778 -0.030000 -0.555556
v -0.777778 0.030000 0.111111
v -0.777778 -0.030000 0.111111
vn 1.000000 0.000000 0.000000
vn 0.000000 0.000000 1.000000
vn 0.000000 -1.000000 0.000000
vn -0.001700 -1.000000 0.000600
vn 0.000000 0.000000 -1.000000
vn -1.000000 0.000000 0.000000
vn 0.000000 1.000000 0.000000
vn -0.000100 1.000000 -0.001000
vn 0.000600 -1.000000 0.004100
usemtl None
s off
f 30//1 32//1 49//1 61//1
f 17//2 5//2 6//2 14//2
f 60//1 48//1 21//1 19//1
f 65//1 34//1 36//1 47//1
f 64//1 46//1 25//1 23//1
f 1//3 3//3 13//3 40//3 38//3 36//3 34//3 32//3 30//3 16//3
f 63//1 38//1 40//1 45//1
f 62//1 44//1 29//1 27//1
f 1//2 16//2 15//2 2//2
f 40//1 13//1 10//1 29//1 44//1 45//1
f 41//4 12//4 7//4 5//4 17//4 31//4 33//4 35//4 37//4 39//4
f 5//1 7//1 8//1 6//1
f 13//5 3//5 4//5 10//5
f 3//6 1//6 2//6 9//6 4//6
f 54//6 18//6 20//6 50//6
f 21//1 48//1 49//1 32//1 34//1 65//1 64//1 23//1
f 25//1 46//1 47//1 36//1 38//1 63//1 62//1 27//1
f 31//6 55//6 51//6 33//6
f 35//6 57//6 53//6 37//6
f 39//6 37//6 53//6 52//6 24//6 26//6 58//6 59//6
f 41//6 43//6 42//6 28//6 11//6 12//6
f 11//5 8//5 7//5 12//5
f 35//6 33//6 51//6 50//6 20//6 22//6 56//6 57//6
f 31//6 17//6 14//6 18//6 54//6 55//6
f 56//6 22//6 24//6 52//6
f 15//1 16//1 30//1 61//1 60//1 19//1
f 41//6 39//6 59//6 43//6
f 58//6 26//6 28//6 42//6
f 11//7 14//7 6//7 8//7
f 10//7 4//7 2//7 15//7
f 54//8 50//8 48//8 60//8
f 60//2 61//2 55//2 54//2
f 50//5 51//5 49//5 48//5
f 53//5 47//5 46//5 52//5
f 64//7 56//7 52//7 46//7
f 64//2 65//2 57//2 56//2
f 59//2 58//2 62//2 63//2
f 62//7 58//7 42//7 44//7
f 43//5 45//5 44//5 42//5
f 63//3 45//3 43//3 59//3
f 47//3 53//3 57//3 65//3
f 49//9 51//9 55//9 61//9
