# Blender v2.77 (sub 0) OBJ File: ''
# www.blender.org
mtllib train_carriage.mtl
o Cube.001
v -2.000000 -2.000000 -3.999998
v 2.000000 -2.000000 -3.999998
v 2.000000 -2.000000 3.999999
v -2.000001 -2.000000 3.999997
v -1.999999 1.428571 -4.000000
v -1.428570 2.000000 -4.000000
v 1.428573 2.000000 -3.999996
v 2.000001 1.428571 -3.999996
v 1.999999 1.428571 3.999999
v 2.000000 -2.000000 3.999999
v 1.428571 2.000000 3.999999
v -1.428571 2.000000 3.999998
v -2.000000 1.428571 3.999998
v -2.000001 -2.000000 3.999997
vn -0.0000 -1.0000 0.0000
vn 0.0000 0.0000 -1.0000
vn 1.0000 -0.0000 0.0000
vn -0.0000 -0.0000 1.0000
vn -0.7071 0.7071 -0.0000
vn -1.0000 0.0000 -0.0000
vn 0.7071 0.7071 0.0000
vn 0.0000 1.0000 -0.0000
usemtl Material.001
s 1
f 1//1 2//1 3//1 4//1
f 1//2 5//2 6//2 7//2 8//2 2//2
f 2//3 8//3 9//3 10//3 3//3
f 4//4 3//4 10//4 9//4 11//4 12//4 13//4 14//4
f 12//5 6//5 5//5 13//5
f 1//6 4//6 14//6 13//6 5//6
f 11//7 9//7 8//7 7//7
f 11//8 7//8 6//8 12//8
