# Blender v2.76 (sub 0) OBJ File: 'train_carriage.blend'
# www.blender.org
mtllib train_carriage.mtl
g Cube
v 3.999998 -2.000000 -2.000000
v 3.999998 -2.000000 2.000000
v -3.999999 -2.000000 2.000000
v -3.999997 -2.000000 -2.000001
v 4.000000 1.428571 -1.999999
v 3.999996 1.428571 2.000001
v 4.000000 2.000000 -1.428570
v 3.999996 2.000000 1.428573
v -3.999999 -2.000000 2.000000
v -3.999997 -2.000000 -2.000001
v -3.999999 1.428571 1.999999
v -3.999998 1.428571 -2.000000
v -3.999999 2.000000 1.428571
v -3.999998 2.000000 -1.428571
vn 0.000000 -1.000000 0.000000
vn 1.000000 0.000000 0.000000
vn -0.000000 -0.000000 1.000000
vn -1.000000 -0.000000 -0.000000
vn 0.000000 0.707100 -0.707100
vn 0.000000 0.000000 -1.000000
vn -0.000000 0.707100 0.707100
vn 0.000000 1.000000 0.000000
usemtl Material
s off
f 1//1 2//1 3//1 4//1
f 1//2 5//2 7//2 8//2 6//2 2//2
f 2//3 6//3 11//3 9//3 3//3
f 4//4 3//4 9//4 11//4 13//4 14//4 12//4 10//4
f 14//5 7//5 5//5 12//5
f 1//6 4//6 10//6 12//6 5//6
f 13//7 11//7 6//7 8//7
f 13//8 8//8 7//8 14//8
