# Blender v2.76 (sub 0) OBJ File: 'train_locomotive.blend'
# www.blender.org
mtllib train_locomotive.mtl
g Head_Cube.003
v -2.000000 -2.000000 4.000000
v -2.000000 -2.000000 -4.000000
v -1.314286 2.000000 -4.000000
v 2.000000 -2.000000 4.000000
v 2.000000 -2.000000 -4.000000
v -1.285714 -1.383515 4.000000
v -2.000000 1.428571 -4.000000
v 2.000000 1.428571 -4.000000
v 2.000000 1.428571 -4.000000
v 2.000000 -2.000000 4.000000
v 1.314286 2.000000 -4.000000
v 1.285714 -1.383515 4.000000
vn 0.000000 -1.000000 0.000000
vn -0.615200 0.725000 0.309800
vn 1.000000 0.000000 0.000000
vn 0.000000 0.000000 1.000000
vn 0.000000 0.921000 0.389500
vn -1.000000 0.000000 0.000000
vn 0.615200 0.725000 0.309800
vn 0.000000 0.000000 -1.000000
usemtl None
s off
f 1//1 2//1 5//1 4//1
f 1//2 6//2 3//2 7//2
f 10//3 4//3 5//3 9//3
f 12//4 6//4 1//4 4//4
f 12//5 11//5 3//5 6//5
f 1//6 7//6 2//6
f 8//7 11//7 12//7 4//7 10//7 9//7
f 5//8 2//8 7//8 3//8 11//8 8//8 9//8
